<?xml version="1.0" encoding="utf-8"?>
<!-- Generator: Adobe Illustrator 15.0.0, SVG Export Plug-In . SVG Version: 6.00 Build 0)  -->
<!DOCTYPE svg PUBLIC "-//W3C//DTD SVG 1.1//EN" "http://www.w3.org/Graphics/SVG/1.1/DTD/svg11.dtd">
<svg version="1.1" xmlns="http://www.w3.org/2000/svg" xmlns:xlink="http://www.w3.org/1999/xlink" x="0px" y="0px" width="100px"
	 height="100px" viewBox="0 0 100 100" enable-background="new 0 0 100 100" xml:space="preserve">
<g id="Ellipse_1_1_" enable-background="new    ">
	<g id="Ellipse_1">
		<g>
			<circle fill-rule="evenodd" clip-rule="evenodd" fill="#363636" cx="50" cy="50" r="50"/>
		</g>
	</g>
</g>
<g id="jt">
	<g>
		<path fill="#FFFFFF" d="M43.5,58.68c0.04-1.199,0.05-2.409,0.03-3.63c-0.021-1.22-0.05-2.43-0.09-3.63
			c-0.16,0.4-0.44,0.971-0.84,1.71c-0.4,0.741-0.861,1.48-1.38,2.22C40.7,56.091,40.16,56.74,39.6,57.3
			c-0.561,0.561-1.06,0.84-1.5,0.84c-0.52,0-0.78-0.26-0.78-0.779c0-0.279,0.051-0.52,0.15-0.721c0.1-0.199,0.23-0.399,0.39-0.6
			c1.08-1.52,2.04-2.949,2.88-4.29c0.84-1.34,1.479-2.93,1.92-4.77l0.36-1.8c0.08-0.32,0.229-0.68,0.45-1.08
			c0.219-0.399,0.489-0.78,0.81-1.14c0.32-0.36,0.669-0.66,1.05-0.9c0.379-0.24,0.75-0.36,1.11-0.36c0.44,0,0.78,0.16,1.02,0.48
			c0.24,0.32,0.399,0.69,0.48,1.11c0.08,0.42,0.12,0.87,0.12,1.35c0,0.44,0,0.82,0,1.14c0,2.681-0.07,5.741-0.21,9.18
			c-0.141,3.44-0.49,6.9-1.05,10.38c-0.561,3.48-1.4,6.77-2.52,9.87c-1.12,3.1-2.64,5.63-4.56,7.59c-0.84,0.88-1.839,1.65-3,2.311
			c-1.16,0.659-2.379,0.989-3.66,0.989c-0.92,0-1.7-0.189-2.34-0.569c-0.64-0.381-1.18-0.87-1.62-1.471
			c-0.44-0.6-0.759-1.29-0.96-2.069c-0.2-0.78-0.3-1.57-0.3-2.37c0-2.04,0.471-4.021,1.41-5.94c0.94-1.92,2.13-3.72,3.57-5.399
			c1.44-1.681,3.01-3.221,4.71-4.62s3.33-2.619,4.89-3.66l1.08-0.72V58.68z M39.24,65.37c-1.479,1.38-2.87,2.869-4.17,4.47
			c-1.299,1.6-2.4,3.26-3.3,4.98c-0.9,1.719-1.35,3.399-1.35,5.04c0,0.359,0.041,0.75,0.12,1.17c0.081,0.42,0.22,0.8,0.42,1.14
			c0.201,0.34,0.46,0.62,0.78,0.84c0.32,0.22,0.7,0.33,1.14,0.33c1,0,1.941-0.42,2.82-1.26c0.88-0.84,1.69-1.92,2.43-3.24
			c0.741-1.32,1.4-2.79,1.98-4.41c0.58-1.62,1.08-3.23,1.5-4.83s0.759-3.08,1.02-4.439c0.26-1.36,0.45-2.439,0.57-3.24
			C42.04,62.841,40.719,63.99,39.24,65.37z M43.44,33.45c0.44-0.62,1.06-0.93,1.86-0.93c0.8,0,1.419,0.31,1.86,0.93
			c0.439,0.621,0.66,1.29,0.66,2.01c0,0.72-0.22,1.401-0.66,2.04c-0.441,0.64-1.061,0.96-1.86,0.96c-0.8,0-1.42-0.32-1.86-0.96
			c-0.44-0.639-0.66-1.32-0.66-2.04C42.78,34.74,43,34.071,43.44,33.45z"/>
		<path fill="#FFFFFF" d="M64.5,40.11c-0.921,1.86-1.881,3.61-2.88,5.25c-0.24,0.441-0.501,0.851-0.78,1.23
			c-0.28,0.381-0.561,0.771-0.84,1.17c-0.16,0.201-0.33,0.411-0.511,0.63c-0.18,0.22-0.31,0.43-0.39,0.63
			c-0.08,0.16-0.12,0.38-0.12,0.66c0,0.28,0,0.5,0,0.66c0,0.601,0.05,1.53,0.15,2.79c0.1,1.26,0.279,2.53,0.54,3.811
			c0.26,1.28,0.64,2.399,1.14,3.359s1.149,1.44,1.95,1.44c0.92,0,1.869-0.35,2.85-1.05s1.92-1.53,2.82-2.49s1.72-1.97,2.46-3.03
			c0.74-1.06,1.329-1.95,1.771-2.67c0.159-0.279,0.379-0.579,0.659-0.9c0.279-0.319,0.58-0.479,0.9-0.479
			c0.24,0,0.439,0.09,0.6,0.27c0.16,0.181,0.24,0.391,0.24,0.63c0,0.441-0.101,0.861-0.3,1.261c-0.2,0.4-0.42,0.801-0.66,1.2
			c-0.561,0.96-1.3,2.069-2.22,3.329c-0.921,1.261-1.94,2.451-3.061,3.57c-1.12,1.12-2.3,2.07-3.54,2.851
			c-1.24,0.779-2.46,1.17-3.659,1.17c-1.041,0-1.95-0.321-2.73-0.96c-0.78-0.641-1.439-1.471-1.979-2.49
			c-0.54-1.021-0.99-2.17-1.351-3.45c-0.359-1.279-0.641-2.56-0.84-3.84c-0.2-1.28-0.34-2.49-0.42-3.63
			c-0.081-1.14-0.12-2.09-0.12-2.85c0-1.959,0.069-3.93,0.21-5.91c0.14-1.98,0.41-3.93,0.811-5.85c-0.4,0.12-0.82,0.18-1.261,0.18
			c-0.96,0-1.439-0.48-1.439-1.44c0-0.8,0.35-1.32,1.05-1.56c0.699-0.24,1.369-0.38,2.01-0.42c0.32-1.08,0.78-2.53,1.38-4.35
			c0.601-1.82,1.34-3.62,2.221-5.4c0.879-1.78,1.89-3.31,3.029-4.59c1.141-1.279,2.409-1.92,3.811-1.92c0.639,0,1.14,0.201,1.5,0.6
			c0.359,0.4,0.63,0.88,0.81,1.44c0.18,0.561,0.29,1.15,0.33,1.77c0.039,0.621,0.061,1.15,0.061,1.59c0,1.56-0.111,3.141-0.33,4.74
			c-0.221,1.6-0.551,3.16-0.99,4.68c0.68-0.08,1.359-0.18,2.04-0.3c0.68-0.12,1.359-0.18,2.04-0.18c0.56,0,0.84,0.261,0.84,0.78
			c0,0.321-0.07,0.55-0.21,0.69c-0.141,0.141-0.33,0.291-0.57,0.45c-0.16,0.081-0.46,0.19-0.899,0.33
			c-0.441,0.141-0.921,0.281-1.44,0.42c-0.521,0.141-1.02,0.27-1.5,0.39c-0.479,0.12-0.84,0.201-1.08,0.24
			C66.12,36.4,65.419,38.25,64.5,40.11z M58.83,40.71c-0.101,1.62-0.21,3.23-0.33,4.83c0.439-0.56,0.93-1.28,1.47-2.16
			c0.54-0.879,1.06-1.809,1.56-2.79c0.5-0.979,0.95-1.939,1.351-2.88c0.399-0.939,0.699-1.77,0.899-2.49
			c-0.72,0.16-1.439,0.27-2.159,0.33c-0.721,0.06-1.421,0.19-2.101,0.39C59.16,37.5,58.929,39.09,58.83,40.71z M63.84,21.57
			c-0.681,1.101-1.301,2.38-1.86,3.84c-0.561,1.46-1.03,2.89-1.41,4.29c-0.38,1.4-0.61,2.4-0.689,3c0.8-0.12,1.62-0.21,2.46-0.27
			s1.659-0.189,2.46-0.39c0.479-1.52,0.879-3.219,1.2-5.1c0.319-1.879,0.479-3.62,0.479-5.22c0-0.08,0-0.22,0-0.42
			c0-0.2-0.021-0.399-0.06-0.6c-0.04-0.2-0.101-0.38-0.181-0.54c-0.08-0.16-0.2-0.24-0.359-0.24
			C65.199,19.92,64.52,20.47,63.84,21.57z"/>
	</g>
	<g>
	</g>
</g>
</svg>
