<?xml version="1.0" encoding="UTF-8" standalone="no"?>
<svg width="210px" height="154px" viewBox="0 0 210 154" version="1.1" xmlns="http://www.w3.org/2000/svg" xmlns:xlink="http://www.w3.org/1999/xlink">
    <!-- Generator: Sketch 40 (33762) - http://www.bohemiancoding.com/sketch -->
    <title>wonder-banner</title>
    <desc>Created with Sketch.</desc>
    <defs></defs>
    <g id="Page-1" stroke="none" stroke-width="1" fill="none" fill-rule="evenodd">
        <g id="wonder-banner" fill="#F8F8F8">
            <g id="W">
                <path d="M14.7978413,0 L44.7338936,0 C48.0440593,0 51.339782,2.6182451 52.0920893,5.83515607 L86.6571163,153.637278 L56.721064,153.637278 C53.4108983,153.637278 50.1151756,151.019033 49.3628683,147.802122 L14.7978413,0 Z" id="Rectangle-11-Copy-7"></path>
                <path d="M86.6571163,0 L116.593169,0 C119.903334,0 123.199057,2.6182451 123.951364,5.83515607 L158.516391,153.637278 L128.580339,153.637278 C125.270173,153.637278 121.974451,151.019033 121.222143,147.802122 L86.6571163,0 Z" id="Rectangle-11-Copy-9"></path>
                <path d="M123.951364,5.83515607 C123.197711,2.61248836 125.272622,-1.27897692e-13 128.580339,-1.27897692e-13 L158.516391,-1.27897692e-13 L193.081418,147.802122 C193.835072,151.02479 191.76016,153.637278 188.452444,153.637278 L158.516391,153.637278 L123.951364,5.83515607 Z" id="Rectangle-11-Copy-10" fill-opacity="0.5" transform="translate(158.516391, 76.818639) scale(1, -1) translate(-158.516391, -76.818639) "></path>
                <path d="M52.0920893,5.83515607 C51.3384357,2.61248836 53.4133473,-1.27897692e-13 56.721064,-1.27897692e-13 L86.6571163,-1.27897692e-13 L121.222143,147.802122 C121.975797,151.02479 119.900885,153.637278 116.593169,153.637278 L86.6571163,153.637278 L52.0920893,5.83515607 Z" id="Rectangle-11-Copy-11" fill-opacity="0.5" transform="translate(86.657116, 76.818639) scale(1, -1) translate(-86.657116, -76.818639) "></path>
                <path d="M0.858477518,5.82306167 C0.0526652124,2.60707351 2.0852938,3.19744231e-14 5.39301044,3.19744231e-14 L35.3290628,3.19744231e-14 L49.2684266,55.6318497 C50.0742389,58.8478378 48.0416103,61.4549114 44.7338936,61.4549114 L14.7978413,61.4549114 L0.858477518,5.82306167 Z" id="Rectangle-11-Copy-12" fill-opacity="0.5" transform="translate(25.063452, 30.727456) scale(1, -1) translate(-25.063452, -30.727456) "></path>
                <path d="M158.551724,3.19744231e-14 L188.487776,3.19744231e-14 C191.797942,3.19744231e-14 195.133177,2.60138815 195.940414,5.82306167 L208.420725,55.6318497 C209.226538,58.8478378 207.193909,61.4549114 203.886192,61.4549114 L179.943725,61.4549114 C176.63356,61.4549114 173.298325,58.8535232 172.491088,55.6318497 L158.551724,3.19744231e-14 Z" id="Rectangle-11-Copy-12"></path>
            </g>
        </g>
    </g>
</svg>